<svg xmlns="http://www.w3.org/2000/svg" width="800" height="500" viewBox="0 0 800 500">
  <rect fill="#e8f5f3" width="800" height="500"/>
  <!-- Search bar -->
  <rect fill="white" x="100" y="60" width="600" height="50" rx="4"/>
  <rect fill="#00887a" x="120" y="75" width="20" height="20" rx="10" opacity="0.3"/>
  <rect fill="#00887a" x="160" y="80" width="200" height="10" rx="2" opacity="0.2"/>
  <!-- Document results -->
  <rect fill="white" x="100" y="130" width="600" height="220" rx="4"/>
  <g fill="#00887a" opacity="0.15">
    <rect x="120" y="150" width="560" height="12" rx="1"/>
    <rect x="120" y="175" width="480" height="10" rx="1"/>
    <rect x="120" y="195" width="520" height="10" rx="1"/>
  </g>
  <rect fill="#00887a" x="120" y="220" width="100" height="8" rx="1" opacity="0.4"/>
  <g fill="#00887a" opacity="0.15">
    <rect x="120" y="250" width="560" height="12" rx="1"/>
    <rect x="120" y="275" width="400" height="10" rx="1"/>
    <rect x="120" y="295" width="450" height="10" rx="1"/>
  </g>
  <rect fill="#00887a" x="120" y="320" width="80" height="8" rx="1" opacity="0.4"/>
  <text x="400" y="420" text-anchor="middle" font-family="system-ui, sans-serif" font-size="24" fill="#00887a" font-weight="600">HTR Search</text>
  <text x="400" y="455" text-anchor="middle" font-family="system-ui, sans-serif" font-size="14" fill="#00887a" opacity="0.7">Handwritten text search</text>
</svg>
