<svg xmlns="http://www.w3.org/2000/svg" width="800" height="500" viewBox="0 0 800 500">
  <rect fill="#e8f5f3" width="800" height="500"/>
  <!-- Sidebar -->
  <rect fill="white" x="40" y="40" width="250" height="320" rx="4"/>
  <rect fill="#00887a" x="60" y="60" width="180" height="24" rx="2" opacity="0.2"/>
  <rect fill="#00887a" x="60" y="100" width="210" height="40" rx="2" opacity="0.1"/>
  <rect fill="#00887a" x="70" y="110" width="140" height="8" rx="1" opacity="0.3"/>
  <rect fill="#00887a" x="70" y="125" width="100" height="6" rx="1" opacity="0.2"/>
  <rect fill="#00887a" x="60" y="160" width="210" height="40" rx="2" opacity="0.1"/>
  <rect fill="#00887a" x="60" y="220" width="210" height="40" rx="2" opacity="0.1"/>
  <rect fill="#00887a" x="60" y="280" width="210" height="40" rx="2" opacity="0.1"/>
  <!-- Map area -->
  <rect fill="#00887a" x="310" y="40" width="450" height="320" rx="4" opacity="0.15"/>
  <!-- Enhanced markers with connections -->
  <g stroke="#00887a" stroke-width="2" stroke-opacity="0.3" fill="none">
    <line x1="400" y1="150" x2="500" y2="200"/>
    <line x1="500" y1="200" x2="600" y2="180"/>
    <line x1="600" y1="180" x2="680" y2="220"/>
  </g>
  <g fill="#00887a">
    <circle cx="400" cy="150" r="10" opacity="0.7"/>
    <circle cx="500" cy="200" r="10" opacity="0.7"/>
    <circle cx="600" cy="180" r="10" opacity="0.7"/>
    <circle cx="680" cy="220" r="10" opacity="0.7"/>
  </g>
  <text x="400" y="420" text-anchor="middle" font-family="system-ui, sans-serif" font-size="24" fill="#00887a" font-weight="600">Plantations (New)</text>
  <text x="400" y="455" text-anchor="middle" font-family="system-ui, sans-serif" font-size="14" fill="#00887a" opacity="0.7">Enhanced plantation explorer</text>
</svg>
