<svg xmlns="http://www.w3.org/2000/svg" width="800" height="500" viewBox="0 0 800 500">
  <rect fill="#e8f5f3" width="800" height="500"/>
  <!-- Filter UI mockup -->
  <rect fill="white" x="40" y="40" width="200" height="320" rx="4"/>
  <rect fill="#00887a" x="60" y="60" width="160" height="24" rx="2" opacity="0.2"/>
  <rect fill="#00887a" x="60" y="100" width="120" height="16" rx="2" opacity="0.15"/>
  <rect fill="#00887a" x="60" y="130" width="140" height="16" rx="2" opacity="0.15"/>
  <rect fill="#00887a" x="60" y="160" width="100" height="16" rx="2" opacity="0.15"/>
  <rect fill="#00887a" x="60" y="190" width="130" height="16" rx="2" opacity="0.15"/>
  <!-- Results area -->
  <rect fill="white" x="260" y="40" width="500" height="320" rx="4"/>
  <g fill="#00887a" opacity="0.2">
    <rect x="280" y="60" width="220" height="80" rx="2"/>
    <rect x="520" y="60" width="220" height="80" rx="2"/>
    <rect x="280" y="160" width="220" height="80" rx="2"/>
    <rect x="520" y="160" width="220" height="80" rx="2"/>
    <rect x="280" y="260" width="220" height="80" rx="2"/>
    <rect x="520" y="260" width="220" height="80" rx="2"/>
  </g>
  <text x="400" y="420" text-anchor="middle" font-family="system-ui, sans-serif" font-size="24" fill="#00887a" font-weight="600">Wikidata Filter</text>
  <text x="400" y="455" text-anchor="middle" font-family="system-ui, sans-serif" font-size="14" fill="#00887a" opacity="0.7">Structured data explorer</text>
</svg>
