<svg width="339" height="21" viewBox="0 0 339 21" fill="none" xmlns="http://www.w3.org/2000/svg">
<path fill-rule="evenodd" clip-rule="evenodd" d="M163.969 2.34613C163.969 1.2312 163.326 1.2312 162.523 1.2312V0.992284C162.523 0.833008 162.604 0.833008 162.764 0.833008C163.166 0.833008 164.049 0.912646 164.691 0.912646C165.414 0.912646 166.057 0.833008 166.779 0.833008L166.86 0.912646V1.2312L166.779 1.31084H166.538C165.655 1.31084 165.254 1.39047 165.254 2.42577V6.40767C165.254 8.39863 165.655 9.91175 168.064 9.91175C170.553 9.91175 171.356 8.71718 171.356 6.40767V2.9036C171.356 1.31084 171.356 1.47011 170.152 1.31084L170.071 1.2312V0.912646L170.152 0.833008C170.393 0.833008 170.714 0.912646 171.758 0.912646C172.32 0.912646 173.042 0.833008 173.524 0.833008L173.605 0.912646V1.2312L173.524 1.31084C172.48 1.31084 172.159 1.39047 172.159 2.02758V6.96514C172.159 9.51356 170.714 10.7878 168.144 10.7878C166.137 10.7878 164.129 10.071 164.129 7.76152V2.34613H163.969Z" fill="white"/>
<path fill-rule="evenodd" clip-rule="evenodd" d="M174.604 4.50014C174.604 4.26437 174.604 4.26437 174.525 4.18578C174.447 4.0286 173.977 3.63565 173.82 3.63565H173.272C173.193 3.63565 173.193 3.55706 173.193 3.47847C173.193 3.39988 173.193 3.32129 173.272 3.32129C173.585 3.32129 173.82 3.32129 174.055 3.32129C174.525 3.32129 175.23 3.32129 175.466 3.39988L178.521 7.09362C178.991 7.64375 179.461 8.19388 180.167 8.9012H180.245V4.42155C180.245 3.71424 180.01 3.63565 179.697 3.63565H179.226C179.148 3.63565 179.148 3.55706 179.148 3.47847C179.148 3.39988 179.148 3.32129 179.226 3.32129C179.461 3.32129 180.01 3.39988 180.48 3.39988C180.95 3.39988 181.42 3.32129 181.734 3.32129C181.812 3.32129 181.812 3.32129 181.812 3.39988V3.55706C181.812 3.63565 181.812 3.63565 181.734 3.63565H181.499C180.793 3.63565 180.793 4.0286 180.793 4.89309V10.7874H180.558L175.074 4.50014V9.13697C175.074 10.0015 175.23 10.08 176.092 10.1586C176.171 10.1586 176.171 10.2372 176.171 10.3158C176.171 10.3944 176.171 10.473 176.092 10.473C175.936 10.473 175.23 10.3944 174.839 10.3944C174.369 10.3944 174.134 10.473 173.663 10.473C173.585 10.473 173.585 10.3944 173.585 10.2372C173.585 10.1586 173.585 10.08 173.742 10.08C174.134 10.08 174.682 10.0015 174.682 9.45133V4.50014H174.604Z" fill="white"/>
<path fill-rule="evenodd" clip-rule="evenodd" d="M184.327 8.42563C184.327 9.96753 184.327 9.96753 185.422 10.0487L185.506 10.1298V10.2921C185.506 10.3733 185.338 10.3733 185.253 10.3733C185.085 10.3733 184.412 10.2921 183.906 10.2921C183.401 10.2921 182.812 10.3733 182.307 10.3733C182.223 10.3733 182.223 10.2921 182.223 10.211C182.223 10.0487 182.223 10.0487 182.559 10.0487C183.317 10.0487 183.317 9.88638 183.317 9.07485V4.04337C183.317 3.4753 183.149 3.31299 182.223 3.31299V3.23184V3.06953C182.223 2.98838 182.307 2.90723 182.391 2.90723C182.728 2.90723 183.065 2.98838 183.738 2.98838C184.243 2.98838 184.917 2.90723 185.338 2.90723L185.422 2.98838V3.15069L185.338 3.23184H185.085C184.664 3.23184 184.327 3.31299 184.327 3.79991V8.42563Z" fill="white"/>
<path fill-rule="evenodd" clip-rule="evenodd" d="M187.179 3.62206C187.101 3.38378 186.636 3.30436 186.404 3.30436L186.326 3.22493V2.98665H186.404C186.791 2.98665 187.411 3.06608 187.644 3.06608C188.109 3.06608 188.574 2.98665 189.039 2.98665V3.30436L188.574 3.38378C188.419 3.38378 188.264 3.46321 188.264 3.62206C188.264 3.70149 188.342 3.86034 188.342 3.93977L189.505 7.03739L190.125 8.54649C190.202 8.70535 190.202 8.70535 190.202 8.70535C190.202 8.70535 190.28 8.62592 190.28 8.54649L191.753 4.6546C191.908 4.17805 192.063 3.86034 192.063 3.70149C192.063 3.54264 191.985 3.46321 191.675 3.38378L191.133 3.30436H191.055V2.90723C191.443 2.90723 191.83 2.98665 192.218 2.98665C192.528 2.98665 193.226 2.90723 193.226 2.90723L193.303 2.98665V3.22493L193.226 3.30436H192.916C192.683 3.30436 192.605 3.38378 192.528 3.78092C191.598 6.1637 191.365 6.87854 190.59 8.8642L190.047 10.2144C189.97 10.3733 189.97 10.3733 189.892 10.3733C189.815 10.3733 189.815 10.3733 189.737 10.2939L187.179 3.62206Z" fill="white"/>
<path fill-rule="evenodd" clip-rule="evenodd" d="M194.914 3.97381C194.914 3.31745 194.434 3.23541 193.795 3.23541C193.715 3.23541 193.715 3.15336 193.715 3.15336V2.98927C193.715 2.90723 193.875 2.90723 194.275 2.90723C194.674 2.90723 195.154 2.98927 195.554 2.98927C195.953 2.98927 196.353 2.90723 196.833 2.90723H198.992C199.072 2.90723 199.072 2.98927 199.072 3.15336V4.46608C199.072 4.54812 199.072 4.54812 198.992 4.54812C198.912 4.54812 198.752 4.54812 198.752 4.46608V4.1379C198.672 3.48154 198.272 3.31745 197.632 3.31745H196.593C196.033 3.31745 195.794 3.48154 195.794 4.21994V6.10697L195.874 6.18902L197.073 6.10697C197.712 6.10697 197.872 5.86084 198.032 5.28652C198.032 5.20448 198.112 5.20448 198.192 5.20448C198.272 5.20448 198.352 5.20448 198.352 5.28652C198.352 5.53266 198.272 6.02493 198.272 6.35311C198.272 6.92742 198.352 7.2556 198.352 7.41969C198.352 7.50173 198.272 7.58378 198.192 7.58378C198.112 7.58378 198.032 7.58378 198.032 7.41969C197.952 7.17355 197.952 6.92742 197.952 6.76333C197.872 6.59924 197.792 6.5172 197.473 6.5172H196.033C195.874 6.5172 195.874 6.59924 195.874 6.68128V9.14263C195.874 9.88103 196.433 9.96307 197.153 9.96307H197.712C198.272 9.96307 198.672 9.96307 198.912 9.79899C199.151 9.6349 199.471 8.97854 199.551 8.7324C199.711 8.7324 199.871 8.7324 199.871 8.81445C199.871 8.81445 199.871 8.89649 199.791 8.97854L199.471 10.0451C199.391 10.3733 199.311 10.3733 199.231 10.3733C198.112 10.3733 196.993 10.2913 195.554 10.2913C195.234 10.2913 194.354 10.3733 193.795 10.3733C193.795 10.3733 193.715 10.2913 193.715 10.2092C193.715 10.1272 193.715 10.0451 193.795 10.0451C194.674 9.96307 194.914 9.88103 194.914 8.89649V3.97381Z" fill="white"/>
<path d="M201.789 4.05585C201.789 3.56358 201.789 3.23541 201.162 3.23541H200.77C200.691 3.23541 200.691 3.15336 200.691 3.07132C200.691 2.98927 200.691 2.90723 200.77 2.90723C201.397 2.90723 201.946 2.90723 202.573 2.90723C203.043 2.90723 203.514 2.90723 203.984 2.90723C205.003 2.90723 206.022 3.64563 206.022 4.71221C206.022 5.69675 205.16 6.35311 204.376 6.43515C204.768 6.51719 205.16 7.33764 205.317 7.50173L206.414 9.30672C206.806 9.88103 207.041 9.96307 207.59 10.0451L207.668 10.1272V10.2913C207.668 10.3733 207.59 10.3733 207.59 10.3733C207.355 10.3733 207.041 10.3733 206.884 10.3733C206.649 10.3733 206.414 10.3733 206.179 10.3733C205.944 10.3733 205.473 9.6349 204.925 8.56831C204.297 7.33764 203.906 6.68128 203.2 6.68128C203.122 6.68128 202.965 6.68128 202.808 6.68128V9.30672C202.808 9.71694 202.808 10.0451 203.278 10.0451C203.67 10.0451 203.827 10.0451 203.827 10.1272C203.827 10.2913 203.827 10.3733 203.67 10.3733C203.122 10.3733 202.73 10.2913 202.259 10.2913C202.102 10.2913 200.927 10.3733 200.848 10.3733C200.77 10.3733 200.77 10.2092 200.77 10.1272C200.77 10.0451 200.848 10.0451 201.005 9.96307C201.711 9.96307 201.867 9.79899 201.867 9.06058V4.05585H201.789ZM202.651 6.35311C202.808 6.35311 202.886 6.35311 203.043 6.35311C203.827 6.35311 204.846 6.02493 204.846 4.79426C204.846 3.89176 204.219 3.23541 203.357 3.23541C202.651 3.23541 202.651 3.3995 202.651 3.72767V6.35311Z" fill="white"/>
<path fill-rule="evenodd" clip-rule="evenodd" d="M209.227 6.64454C208.489 6.15706 208.16 5.75083 208.16 4.93837C208.16 3.63844 209.227 2.90723 210.705 2.90723C211.115 2.90723 211.69 3.06972 212.018 3.23221L212.1 4.53214V4.61339C212.1 4.69464 212.018 4.69464 211.854 4.69464C211.69 4.69464 211.69 4.61339 211.69 4.53214C211.608 3.80093 211.115 3.3947 210.376 3.3947C209.638 3.3947 209.063 3.88218 209.063 4.61339C209.063 5.3446 209.556 5.66959 210.623 6.23831C211.69 6.80703 212.593 7.29451 212.593 8.59444C212.593 10.0569 211.279 10.7881 209.966 10.7881C209.556 10.7881 208.817 10.6256 208.406 10.4631C208.324 10.3819 208.324 10.3006 208.242 10.0569L208.078 9.08192C208.078 9.00067 208.324 9.00067 208.324 9.00067C208.324 9.00067 208.406 9.00067 208.406 9.08192C208.653 9.89437 209.227 10.3819 210.048 10.3819C210.787 10.3819 211.526 9.73188 211.526 9.00067C211.526 8.3507 211.115 7.94447 210.541 7.61949L209.227 6.64454Z" fill="white"/>
<path fill-rule="evenodd" clip-rule="evenodd" d="M215.109 8.42563C215.109 9.96753 215.109 9.96753 216.203 10.0487L216.287 10.1298V10.2921C216.287 10.3733 216.119 10.3733 216.035 10.3733C215.866 10.3733 215.193 10.2921 214.688 10.2921C214.183 10.2921 213.593 10.3733 213.088 10.3733C213.004 10.3733 213.004 10.2921 213.004 10.211C213.004 10.0487 213.004 10.0487 213.341 10.0487C214.098 10.0487 214.098 9.88638 214.098 9.07485V4.04337C214.098 3.4753 213.93 3.31299 213.004 3.31299V3.23184V3.06953C213.004 2.98838 213.088 2.90723 213.172 2.90723C213.509 2.90723 213.846 2.98838 214.519 2.98838C215.024 2.98838 215.698 2.90723 216.119 2.90723L216.203 2.98838V3.15069V3.23184H215.866C215.445 3.23184 215.109 3.31299 215.109 3.79991V8.42563Z" fill="white"/>
<path fill-rule="evenodd" clip-rule="evenodd" d="M220.86 9.17995C220.86 9.97599 221.329 9.97599 221.954 9.97599L222.032 10.0556V10.2148C222.032 10.374 221.954 10.374 221.798 10.374C221.563 10.374 221.094 10.2944 220.391 10.2944C219.843 10.2944 218.984 10.374 218.749 10.374C218.749 10.2944 218.749 10.2148 218.749 10.2148V10.1352L218.827 10.0556H218.984C219.922 10.0556 219.922 9.73718 219.922 8.86153V3.84644V3.36881H218.593C217.811 3.36881 217.733 3.84644 217.498 4.56288C217.498 4.64249 217.42 4.64249 217.342 4.64249C217.186 4.64249 217.107 4.56288 217.107 4.56288C217.107 4.40367 217.264 3.44842 217.264 2.65237C217.264 2.57277 217.42 2.57277 217.576 2.57277C217.889 3.0504 217.967 3.0504 218.436 3.0504H222.189C222.892 3.0504 223.127 2.81158 223.361 2.49316C223.439 2.49316 223.674 2.49316 223.674 2.57277C223.674 2.65237 223.439 3.52802 223.439 4.24446C223.439 4.32407 223.439 4.56288 223.361 4.56288C223.283 4.56288 223.049 4.48328 223.049 4.48328V4.00565C222.97 3.44842 222.736 3.44842 222.345 3.44842H220.938V9.17995H220.86Z" fill="white"/>
<path fill-rule="evenodd" clip-rule="evenodd" d="M225.283 3.97381C225.283 3.31745 224.804 3.23541 224.164 3.23541C224.084 3.23541 224.084 3.15336 224.084 3.15336V2.98927C224.084 2.90723 224.244 2.90723 224.644 2.90723C225.043 2.90723 225.523 2.98927 225.923 2.98927C226.323 2.98927 226.722 2.90723 227.202 2.90723H229.361C229.441 2.90723 229.441 2.98927 229.441 3.15336V4.46608C229.441 4.54812 229.441 4.54812 229.361 4.54812C229.281 4.54812 229.121 4.54812 229.121 4.46608V4.1379C229.041 3.48154 228.641 3.31745 228.002 3.31745H226.962C226.403 3.31745 226.163 3.48154 226.163 4.21994V6.10697L226.243 6.18902L227.442 6.10697C228.082 6.10697 228.241 5.86084 228.401 5.28652C228.401 5.20448 228.481 5.20448 228.561 5.20448C228.641 5.20448 228.721 5.20448 228.721 5.28652C228.721 5.53266 228.641 6.02493 228.641 6.35311C228.641 6.92742 228.721 7.2556 228.721 7.41969C228.721 7.50173 228.641 7.58378 228.561 7.58378C228.481 7.58378 228.401 7.58378 228.401 7.41969C228.321 7.17355 228.321 6.92742 228.321 6.76333C228.241 6.59924 228.161 6.5172 227.842 6.5172H226.403C226.243 6.5172 226.243 6.59924 226.243 6.68128V9.14263C226.243 9.88103 226.802 9.96307 227.522 9.96307H228.081C228.641 9.96307 229.041 9.96307 229.281 9.79899C229.521 9.6349 229.84 8.97854 229.92 8.7324C230.08 8.7324 230.24 8.7324 230.24 8.81445C230.24 8.81445 230.24 8.89649 230.16 8.97854L229.84 10.0451C229.76 10.3733 229.68 10.3733 229.601 10.3733C228.481 10.3733 227.362 10.2913 225.923 10.2913C225.603 10.2913 224.724 10.3733 224.164 10.3733C224.164 10.3733 224.084 10.2913 224.084 10.2092C224.084 10.1272 224.084 10.0451 224.164 10.0451C225.043 9.96307 225.283 9.88103 225.283 8.89649V3.97381Z" fill="white"/>
<path fill-rule="evenodd" clip-rule="evenodd" d="M232.757 8.42563C232.757 9.96753 232.757 9.96753 233.851 10.0487L233.936 10.1298V10.2921C233.936 10.3733 233.767 10.3733 233.683 10.3733C233.515 10.3733 232.841 10.2921 232.336 10.2921C231.831 10.2921 231.242 10.3733 230.737 10.3733C230.652 10.3733 230.652 10.2921 230.652 10.211C230.652 10.0487 230.652 10.0487 230.989 10.0487C231.747 10.0487 231.747 9.88638 231.747 9.07485V4.04337C231.747 3.4753 231.578 3.31299 230.652 3.31299V3.23184V3.06953C230.652 2.98838 230.737 2.90723 230.821 2.90723C231.157 2.90723 231.494 2.98838 232.168 2.98838C232.673 2.98838 233.346 2.90723 233.767 2.90723L233.851 2.98838V3.15069V3.23184H233.515C233.094 3.23184 232.757 3.31299 232.757 3.79991V8.42563Z" fill="white"/>
<path fill-rule="evenodd" clip-rule="evenodd" d="M238.098 9.17995C238.098 9.97599 238.567 9.97599 239.271 9.97599L239.349 10.0556V10.2148C239.349 10.374 239.271 10.374 239.114 10.374C238.88 10.374 238.411 10.2944 237.707 10.2944C237.16 10.2944 236.3 10.374 236.066 10.374C236.066 10.2944 235.987 10.2148 235.987 10.2148C235.987 10.2148 235.987 10.1352 236.066 10.1352L236.144 10.0556H236.3C237.238 10.0556 237.238 9.73718 237.238 8.86153V3.84644V3.36881H235.831C235.049 3.36881 234.971 3.84644 234.737 4.56288C234.737 4.64249 234.658 4.64249 234.58 4.64249C234.424 4.64249 234.346 4.56288 234.346 4.56288C234.346 4.40367 234.502 3.44842 234.502 2.65237C234.502 2.57277 234.658 2.57277 234.815 2.57277C235.127 3.0504 235.206 3.0504 235.675 3.0504H239.427C240.131 3.0504 240.365 2.81158 240.6 2.49316C240.678 2.49316 240.912 2.49316 240.912 2.57277C240.912 2.65237 240.678 3.52802 240.678 4.24446C240.678 4.32407 240.678 4.56288 240.6 4.56288C240.521 4.56288 240.287 4.48328 240.287 4.48328L240.209 4.00565C240.131 3.44842 239.896 3.44842 239.505 3.44842H238.098V9.17995Z" fill="white"/>
<path fill-rule="evenodd" clip-rule="evenodd" d="M245.468 3.62206C245.389 3.38378 244.919 3.30436 244.684 3.30436L244.605 3.22493V2.98665H244.684C245.076 2.98665 245.703 3.06608 245.938 3.06608C246.409 3.06608 246.879 2.98665 247.349 2.98665V3.30436L246.879 3.38378C246.722 3.38378 246.565 3.46321 246.565 3.62206C246.565 3.70149 246.644 3.86034 246.644 3.93977L247.82 7.03739L248.447 8.54649C248.525 8.70535 248.525 8.70535 248.525 8.70535C248.525 8.70535 248.604 8.62592 248.604 8.54649L250.015 4.6546C250.171 4.17805 250.328 3.86034 250.328 3.70149C250.328 3.54264 250.25 3.46321 249.936 3.38378L249.387 3.30436H249.309V2.90723C249.701 2.90723 250.093 2.98665 250.485 2.98665C250.799 2.98665 251.504 2.90723 251.504 2.90723L251.582 2.98665V3.22493L251.504 3.30436H251.19C250.955 3.30436 250.877 3.38378 250.799 3.78092C249.858 6.1637 249.623 6.87854 248.839 8.8642L248.29 10.2144C248.212 10.3733 248.212 10.3733 248.133 10.3733C248.055 10.3733 248.055 10.3733 247.976 10.2939L245.468 3.62206Z" fill="white"/>
<path d="M252.274 7.59338L251.808 9.02305C251.73 9.26133 251.652 9.49961 251.652 9.65846C251.652 9.97617 252.119 10.0556 252.43 10.0556C252.508 10.0556 252.508 10.135 252.508 10.2144C252.508 10.2939 252.508 10.3733 252.43 10.3733C252.197 10.3733 251.497 10.2939 251.186 10.2939C250.952 10.2939 250.486 10.3733 250.175 10.3733C249.941 10.3733 249.941 10.3733 249.941 10.2144V10.135C249.941 10.0556 250.019 10.0556 250.252 10.0556C250.797 9.97617 250.875 9.89674 251.03 9.34076L253.052 3.38378C253.285 3.22493 253.441 2.98665 253.752 2.90723L256.24 9.42018C256.396 9.81731 256.629 10.0556 257.173 10.0556C257.251 10.0556 257.329 10.2144 257.329 10.2939C257.329 10.3733 257.251 10.3733 257.173 10.3733C257.018 10.3733 256.396 10.2939 256.007 10.2939C255.618 10.2939 255.229 10.2939 254.763 10.3733C254.607 10.3733 254.607 10.3733 254.607 10.2144C254.607 10.135 254.685 10.0556 254.84 10.0556C254.996 10.0556 255.463 10.0556 255.463 9.73789C255.463 9.65846 255.385 9.49961 255.307 9.10248L254.685 7.43453H252.274V7.59338ZM254.529 7.19625L253.441 4.25747L252.508 7.19625H254.529Z" fill="white"/>
<path fill-rule="evenodd" clip-rule="evenodd" d="M259.559 4.50014C259.559 4.26437 259.559 4.26437 259.48 4.18578C259.402 4.0286 258.932 3.63565 258.775 3.63565H258.227C258.148 3.63565 258.148 3.55706 258.148 3.47847C258.148 3.39988 258.148 3.32129 258.227 3.32129C258.54 3.32129 258.775 3.32129 259.01 3.32129C259.48 3.32129 260.186 3.32129 260.421 3.39988L263.476 7.09362C263.946 7.64375 264.417 8.19388 265.122 8.9012H265.2V4.42155C265.2 3.71424 264.965 3.63565 264.652 3.63565H264.181C264.103 3.63565 264.103 3.55706 264.103 3.47847C264.103 3.39988 264.103 3.32129 264.181 3.32129C264.417 3.32129 264.965 3.39988 265.435 3.39988C265.905 3.39988 266.375 3.32129 266.689 3.32129C266.767 3.32129 266.767 3.32129 266.767 3.39988V3.55706C266.767 3.63565 266.767 3.63565 266.689 3.63565H266.454C265.749 3.63565 265.749 4.0286 265.749 4.89309V10.7874H265.513L260.029 4.50014V9.13697C260.029 10.0015 260.186 10.08 261.047 10.1586C261.126 10.1586 261.126 10.2372 261.126 10.3158C261.126 10.3944 261.126 10.473 261.126 10.473C260.969 10.473 260.264 10.3944 259.872 10.3944C259.402 10.3944 259.167 10.473 258.697 10.473C258.619 10.473 258.619 10.3944 258.619 10.2372C258.619 10.1586 258.619 10.08 258.775 10.08C259.167 10.08 259.715 10.0015 259.715 9.45133V4.50014H259.559Z" fill="white"/>
<path d="M272.556 6.61128L271.926 8.57088C271.847 8.88441 271.768 9.19795 271.768 9.4331C271.768 9.9034 272.399 9.98179 272.793 9.98179C272.95 9.98179 272.95 10.0602 272.95 10.2169C272.95 10.3737 272.95 10.3737 272.871 10.3737C272.556 10.3737 271.532 10.2953 271.217 10.2953C270.823 10.2953 270.271 10.3737 269.877 10.3737C269.641 10.3737 269.641 10.2953 269.641 10.1386V9.98179C269.641 9.9034 269.798 9.9034 270.113 9.82502C270.823 9.74664 270.901 9.58987 271.138 8.88441L273.817 1.04602C274.053 0.810865 274.369 0.497329 274.684 0.418945L278.072 8.9628C278.309 9.51148 278.545 9.82502 279.333 9.82502C279.491 9.82502 279.491 9.98179 279.491 10.1386C279.491 10.2953 279.412 10.2953 279.254 10.2953C279.018 10.2953 278.151 10.2169 277.599 10.2169C277.048 10.2169 276.496 10.2169 275.945 10.2953C275.708 10.2953 275.708 10.2169 275.708 10.0602C275.708 9.9034 275.787 9.82502 275.945 9.82502C276.181 9.82502 276.811 9.74663 276.811 9.4331C276.811 9.35472 276.733 9.11956 276.575 8.64926L275.708 6.45451H272.556V6.61128ZM275.629 6.06259L274.132 2.22178L272.793 6.06259H275.629Z" fill="white"/>
<path fill-rule="evenodd" clip-rule="evenodd" d="M286.967 2.90723C287.281 2.90723 287.595 2.90723 287.909 2.90723C288.144 2.90723 288.458 2.90723 288.694 2.90723C288.851 2.90723 288.851 2.98582 288.851 2.98582V3.143C288.851 3.22159 288.851 3.30018 288.772 3.30018C288.694 3.30018 288.615 3.30018 288.458 3.30018C287.83 3.30018 287.83 3.61454 287.83 4.24326C287.83 4.79339 287.909 8.64431 287.909 9.19444C287.909 9.50881 288.066 9.82317 288.458 9.82317C288.851 9.82317 288.929 9.82317 288.929 9.90176C288.929 10.0589 288.851 10.1375 288.851 10.1375C288.301 10.1375 287.909 10.0589 287.438 10.0589C287.045 10.0589 286.574 10.1375 286.103 10.1375C286.024 10.1375 286.024 10.0589 286.024 10.0589V9.98035C286.024 9.90176 286.103 9.82317 286.574 9.82317C286.81 9.82317 286.967 9.5874 286.967 9.19444C286.967 8.09418 286.888 5.73647 286.888 4.00749C286.338 5.18634 285.553 6.83674 285.239 7.77982L284.297 10.2947C284.297 10.2947 284.297 10.3733 284.219 10.3733C284.14 10.3733 284.14 10.2947 284.062 10.2161C283.983 9.98035 283.905 9.74458 283.826 9.50881L281.942 4.79339C281.863 4.63621 281.785 4.47903 281.785 4.47903C281.706 4.47903 281.706 4.7148 281.706 4.79339C281.706 5.57929 281.549 8.64431 281.549 9.19444C281.549 9.66599 281.549 9.90176 282.413 9.90176C282.491 9.90176 282.491 9.98035 282.491 10.0589C282.491 10.1375 282.491 10.2161 282.413 10.2161C282.256 10.2161 281.785 10.1375 281.235 10.1375C280.686 10.1375 280.057 10.2161 279.979 10.2161C279.979 10.2161 279.9 10.2161 279.9 10.1375V9.98035C279.9 9.90176 279.979 9.90176 280.136 9.90176C281 9.90176 281.078 9.66599 281.078 8.80149C281.078 8.32995 281.235 4.55762 281.235 4.16467C281.235 3.61454 281 3.37877 280.057 3.37877L279.979 3.30018V3.06441C279.979 2.98582 279.979 2.98582 280.057 2.98582C280.45 2.98582 280.843 3.06441 281.235 3.06441C281.471 3.06441 281.785 2.98582 282.02 2.98582C282.099 2.98582 282.177 3.143 282.177 3.30018L284.376 8.56572H284.454L286.967 2.90723Z" fill="white"/>
<path fill-rule="evenodd" clip-rule="evenodd" d="M290.489 6.64454C289.75 6.15706 289.422 5.75083 289.422 4.93837C289.422 3.63844 290.489 2.90723 291.966 2.90723C292.377 2.90723 292.951 3.06972 293.28 3.23221L293.362 4.53214V4.61339C293.362 4.69464 293.28 4.69464 293.116 4.69464C292.951 4.69464 292.951 4.61339 292.951 4.53214C292.869 3.80093 292.377 3.3947 291.638 3.3947C290.899 3.3947 290.325 3.88218 290.325 4.61339C290.325 5.3446 290.817 5.66959 291.884 6.23831C292.951 6.80703 293.854 7.29451 293.854 8.59444C293.854 10.0569 292.541 10.7881 291.228 10.7881C290.817 10.7881 290.079 10.6256 289.668 10.4631C289.586 10.3819 289.586 10.3006 289.504 10.0569L289.34 9.08192C289.34 9.00067 289.586 9.00067 289.586 9.00067C289.586 9.00067 289.668 9.00067 289.668 9.08192C289.914 9.89437 290.489 10.3819 291.31 10.3819C292.049 10.3819 292.787 9.73188 292.787 9.00067C292.787 8.3507 292.377 7.94447 291.884 7.61949L290.489 6.64454Z" fill="white"/>
<path fill-rule="evenodd" clip-rule="evenodd" d="M298.018 9.17995C298.018 9.97599 298.487 9.97599 299.112 9.97599L299.191 10.0556V10.2148C299.191 10.374 299.112 10.374 298.956 10.374C298.722 10.374 298.252 10.2944 297.549 10.2944C297.002 10.2944 296.142 10.374 295.907 10.374C295.907 10.2944 295.829 10.2148 295.829 10.2148C295.829 10.2148 295.829 10.1352 295.907 10.1352L295.985 10.0556H296.142C297.08 10.0556 297.08 9.73718 297.08 8.86153V3.92605V3.44842H295.751C294.969 3.44842 294.891 3.92605 294.656 4.56288C294.656 4.64249 294.578 4.64249 294.5 4.64249C294.344 4.64249 294.266 4.56288 294.266 4.56288C294.266 4.40367 294.422 3.44842 294.422 2.65237C294.422 2.57277 294.578 2.57277 294.735 2.57277C295.047 3.0504 295.126 3.0504 295.595 3.0504H299.347C300.05 3.0504 300.285 2.81158 300.52 2.49316C300.598 2.49316 300.832 2.49316 300.832 2.57277C300.832 2.65237 300.598 3.52802 300.598 4.24446C300.598 4.32407 300.598 4.56288 300.52 4.56288C300.441 4.56288 300.207 4.48328 300.207 4.48328L300.129 4.00565C300.05 3.44842 299.816 3.44842 299.425 3.44842H298.018V9.17995Z" fill="white"/>
<path fill-rule="evenodd" clip-rule="evenodd" d="M302.441 3.97381C302.441 3.31745 301.962 3.23541 301.322 3.23541C301.242 3.23541 301.242 3.15336 301.242 3.15336V2.98927C301.242 2.90723 301.402 2.90723 301.802 2.90723C302.202 2.90723 302.681 2.98927 303.081 2.98927C303.481 2.98927 303.881 2.90723 304.36 2.90723H306.519C306.599 2.90723 306.599 2.98927 306.599 3.15336V4.46608C306.599 4.54812 306.599 4.54812 306.519 4.54812C306.439 4.54812 306.279 4.54812 306.279 4.46608V4.1379C306.199 3.48154 305.799 3.31745 305.16 3.31745H304.12C303.561 3.31745 303.321 3.48154 303.321 4.21994V6.10697L303.401 6.18902L304.6 6.10697C305.24 6.10697 305.4 5.86084 305.56 5.28652C305.56 5.20448 305.639 5.20448 305.719 5.20448C305.799 5.20448 305.879 5.20448 305.879 5.28652C305.879 5.53266 305.799 6.02493 305.799 6.35311C305.799 6.92742 305.879 7.2556 305.879 7.41969C305.879 7.50173 305.799 7.58378 305.719 7.58378C305.639 7.58378 305.56 7.58378 305.56 7.41969C305.48 7.17355 305.48 6.92742 305.48 6.76333C305.4 6.59924 305.32 6.5172 305 6.5172H303.561C303.401 6.5172 303.401 6.59924 303.401 6.68128V9.14263C303.401 9.88103 303.961 9.96307 304.68 9.96307H305.24C305.799 9.96307 306.199 9.96307 306.439 9.79899C306.679 9.6349 306.999 8.97854 307.079 8.7324C307.238 8.7324 307.398 8.7324 307.398 8.81445C307.398 8.81445 307.398 8.89649 307.318 8.97854L306.999 10.0451C306.919 10.3733 306.839 10.3733 306.759 10.3733C305.639 10.3733 304.52 10.2913 303.081 10.2913C302.761 10.2913 301.882 10.3733 301.322 10.3733C301.322 10.3733 301.242 10.2913 301.242 10.2092C301.242 10.1272 301.242 10.0451 301.322 10.0451C302.202 9.96307 302.441 9.88103 302.441 8.89649V3.97381Z" fill="white"/>
<path d="M308.906 4.04337C308.906 3.55645 308.906 3.23184 308.279 3.23184H307.887C307.809 3.23184 307.809 3.15069 307.809 3.06953C307.809 2.98838 307.809 2.90723 307.887 2.90723C308.514 2.90723 309.063 2.90723 309.69 2.90723C310.16 2.90723 310.631 2.90723 311.101 2.90723C312.12 2.90723 313.139 3.6376 313.139 4.69259C313.139 5.66643 312.277 6.31565 311.493 6.3968C311.885 6.47796 312.277 7.28949 312.434 7.45179L313.531 9.23716C313.923 9.80523 314.158 9.88638 314.707 9.96753L314.786 10.0487V10.211C314.786 10.2921 314.707 10.2921 314.707 10.2921C314.472 10.2921 314.158 10.2921 314.002 10.2921C313.766 10.2921 313.531 10.2921 313.296 10.2921C313.061 10.2921 312.591 9.56177 312.042 8.50678C311.258 7.37064 310.866 6.72142 310.239 6.72142C310.16 6.72142 310.004 6.72142 309.925 6.72142V9.31831C309.925 9.72407 309.925 10.0487 310.396 10.0487C310.788 10.0487 310.944 10.0487 310.944 10.1298C310.944 10.2921 310.944 10.3733 310.788 10.3733C310.239 10.3733 309.847 10.2921 309.376 10.2921C309.22 10.2921 308.044 10.3733 307.965 10.3733C307.887 10.3733 307.887 10.211 307.887 10.1298C307.887 10.0487 307.965 10.0487 308.122 9.96753C308.828 9.96753 308.984 9.80523 308.984 9.07485V4.04337H308.906ZM309.847 6.31565C310.004 6.31565 310.082 6.31565 310.239 6.31565C311.023 6.31565 312.042 5.99104 312.042 4.77374C312.042 3.88106 311.415 3.23184 310.552 3.23184C309.847 3.23184 309.847 3.39414 309.847 3.71876V6.31565Z" fill="white"/>
<path d="M315.991 4.27199C315.991 3.87059 315.911 3.46919 315.509 3.46919C315.348 3.46919 315.026 3.54947 314.866 3.54947C314.785 3.54947 314.785 3.38891 314.785 3.30863C314.785 3.22835 314.785 3.22835 314.946 3.14807C315.669 2.98751 317.277 2.90723 318.242 2.90723C318.805 2.90723 319.367 2.98751 319.85 3.06779C321.297 3.46919 322.583 4.67339 322.583 6.60012C322.583 9.16909 320.412 10.3733 318.483 10.3733C317.518 10.3733 316.956 10.293 316.473 10.293C315.991 10.293 315.428 10.293 314.946 10.3733C314.866 10.3733 314.866 10.293 314.866 10.2127C314.866 10.1325 314.946 10.0522 314.946 10.0522C315.267 9.9719 315.589 9.9719 315.75 9.89162C315.911 9.81134 315.991 9.65078 315.991 9.32965V4.27199ZM316.956 8.84797C316.956 9.9719 318.162 9.9719 318.563 9.9719C320.01 9.9719 321.538 8.76769 321.538 6.60012C321.538 4.75367 320.573 3.87059 319.85 3.38891C319.367 3.14807 318.724 3.14807 318.242 3.14807C317.358 3.14807 316.956 3.22835 316.956 3.87059V8.84797Z" fill="white"/>
<path d="M324.507 7.59338L324.04 9.02305C323.962 9.26133 323.885 9.49961 323.885 9.65846C323.885 9.97617 324.351 10.0556 324.662 10.0556C324.74 10.0556 324.74 10.135 324.74 10.2144C324.74 10.2939 324.74 10.3733 324.662 10.3733C324.429 10.3733 323.729 10.2939 323.418 10.2939C323.185 10.2939 322.718 10.3733 322.407 10.3733C322.174 10.3733 322.174 10.3733 322.174 10.2144V10.135C322.174 10.0556 322.252 10.0556 322.485 10.0556C323.029 9.97617 323.107 9.89674 323.263 9.34076L325.284 3.38378C325.518 3.22493 325.673 2.98665 325.984 2.90723L328.473 9.42018C328.628 9.81731 328.861 10.0556 329.406 10.0556C329.483 10.0556 329.561 10.2144 329.561 10.2939C329.561 10.3733 329.483 10.3733 329.406 10.3733C329.25 10.3733 328.628 10.2939 328.239 10.2939C327.85 10.2939 327.462 10.2939 326.995 10.3733C326.84 10.3733 326.84 10.3733 326.84 10.2144C326.84 10.135 326.917 10.0556 327.073 10.0556C327.228 10.0556 327.695 10.0556 327.695 9.73789C327.695 9.65846 327.617 9.49961 327.539 9.10248L326.917 7.59338H324.507ZM326.684 7.19625L325.595 4.25747L324.584 7.19625H326.684Z" fill="white"/>
<path fill-rule="evenodd" clip-rule="evenodd" d="M336.958 2.90723C337.272 2.90723 337.587 2.90723 337.901 2.90723C338.136 2.90723 338.45 2.90723 338.686 2.90723C338.843 2.90723 338.843 2.98582 338.843 2.98582V3.143C338.843 3.22159 338.843 3.30018 338.764 3.30018C338.686 3.30018 338.607 3.30018 338.45 3.30018C337.901 3.30018 337.901 3.61454 337.901 4.24326C337.901 4.79339 337.979 8.64431 337.979 9.19444C337.979 9.50881 338.136 9.82317 338.529 9.82317C338.921 9.82317 339 9.82317 339 9.90176C339 10.0589 338.921 10.1375 338.921 10.1375C338.372 10.1375 337.979 10.0589 337.508 10.0589C337.115 10.0589 336.644 10.1375 336.173 10.1375C336.095 10.1375 336.095 10.0589 336.095 10.0589V9.98035C336.095 9.90176 336.173 9.82317 336.644 9.82317C336.88 9.82317 337.037 9.5874 337.037 9.19444C337.037 8.09418 337.037 5.73647 336.958 4.00749C336.409 5.18634 335.624 6.83674 335.31 7.77982L334.367 10.2947L334.289 10.3733C334.21 10.3733 334.21 10.2947 334.132 10.2161C334.053 9.98035 333.975 9.74458 333.896 9.50881L332.012 4.79339C331.934 4.63621 331.855 4.47903 331.855 4.47903C331.855 4.47903 331.777 4.7148 331.777 4.79339C331.777 5.57929 331.619 8.64431 331.619 9.19444C331.619 9.66599 331.619 9.90176 332.483 9.90176C332.562 9.90176 332.562 9.98035 332.562 10.0589C332.562 10.1375 332.562 10.2161 332.483 10.2161C332.326 10.2161 331.855 10.1375 331.305 10.1375C330.756 10.1375 330.128 10.2161 330.049 10.2161C330.049 10.2161 329.971 10.2161 329.971 10.1375V9.98035C329.971 9.90176 330.049 9.90176 330.206 9.90176C331.07 9.90176 331.148 9.66599 331.148 8.80149C331.148 8.32995 331.305 4.55762 331.305 4.16467C331.305 3.61454 331.07 3.37877 330.128 3.37877L330.049 3.30018V3.06441C330.049 2.98582 330.049 2.98582 330.128 2.98582C330.52 2.98582 330.913 3.06441 331.305 3.06441C331.541 3.06441 331.855 2.98582 332.091 2.98582C332.169 2.98582 332.248 3.143 332.248 3.30018L334.446 8.56572H334.524L336.958 2.90723Z" fill="white"/>
<path d="M157.598 0.418945H137.898V20.3285H157.598V0.418945Z" fill="white"/>
<path fill-rule="evenodd" clip-rule="evenodd" d="M146.064 6.22764L147.542 4.73299L149.021 6.22764L149.8 5.44098L148.399 3.94634L149.8 2.45169L149.021 1.66504L147.542 3.08102L146.064 1.66504L145.285 2.45169L146.764 3.94634L145.285 5.44098L146.064 6.22764Z" fill="#4D1700"/>
<path fill-rule="evenodd" clip-rule="evenodd" d="M146.064 11.6183L147.542 10.2023L149.021 11.6183L149.8 10.8316L148.399 9.33696L149.8 7.84232L149.021 7.05566L147.542 8.55031L146.064 7.05566L145.285 7.84232L146.764 9.33696L145.285 10.8316L146.064 11.6183Z" fill="#4D1700"/>
<path fill-rule="evenodd" clip-rule="evenodd" d="M146.064 19.0831L147.542 17.6138L149.021 19.0831L149.8 18.3098L148.399 16.8405L149.8 15.3712L149.021 14.5205L147.542 15.9898L146.064 14.5205L145.285 15.3712L146.764 16.8405L145.285 18.3098L146.064 19.0831Z" fill="#4D1700"/>
<path fill-rule="evenodd" clip-rule="evenodd" d="M152.183 5.84591L150.456 5.92769C150.456 5.92769 150.691 7.80852 150.613 9.68935C150.534 11.4884 150.22 11.8155 150.22 11.8155C149.828 12.5515 148.65 12.715 148.022 12.7968C147.394 12.8786 147.158 12.7968 147.158 12.7968C147.158 12.7968 145.431 12.715 145.038 11.8973C144.803 11.4066 144.803 10.4253 144.803 10.4253C144.803 10.4253 144.803 5.92769 144.803 5.84591C144.803 5.76414 144.41 5.84591 144.018 5.84591C143.704 5.84591 143.232 5.84591 143.232 5.84591L143.389 9.11692V11.0795C143.389 11.0795 143.389 12.1426 143.625 12.5515C144.096 13.2875 144.567 13.5328 144.803 13.6146C145.038 13.7781 145.509 13.8599 145.98 14.0234C146.451 14.1052 147.237 14.187 148.336 13.8599C149.435 13.6146 149.828 13.0421 149.828 13.0421L150.613 12.2244V14.1052L152.261 13.6146C152.261 13.6146 152.026 12.1426 152.026 9.60757C152.026 7.15432 152.183 5.84591 152.183 5.84591Z" fill="#4D1700"/>
<path d="M1.51121 2.18511C1.51121 1.62315 1.43167 1.14147 0.874908 1.14147C0.715834 1.14147 0.318148 1.22175 0 1.22175C0 1.22175 0 0.980908 0 0.900627C0 0.820347 0 0.740067 0.238611 0.740067C1.19306 0.579506 3.34056 0.418945 4.53362 0.418945C5.24945 0.418945 5.96528 0.499226 6.68112 0.659786C8.51047 1.14147 10.2603 2.82736 10.2603 5.39633C10.2603 8.84838 7.39695 10.3737 4.85176 10.3737C3.57917 10.3737 2.86334 10.2934 2.1475 10.2934C1.43167 10.2934 0.795371 10.3737 0.0795371 10.3737C0 10.3737 0 10.2131 0 10.1329C0 10.0526 0.0795371 9.89202 0.159074 9.89202C0.636297 9.81174 0.954445 9.81174 1.19306 9.65118C1.43167 9.49062 1.51121 9.33006 1.51121 8.84838V2.18511ZM2.70426 8.3667C2.70426 9.89202 4.295 9.89202 4.85176 9.89202C6.76066 9.89202 8.74908 8.3667 8.74908 5.47661C8.74908 2.98792 7.39695 1.78371 6.52204 1.22175C5.80621 0.900627 5.01084 0.900627 4.37454 0.900627C3.26102 0.900627 2.70426 0.980908 2.70426 1.86399V8.3667Z" fill="white"/>
<path fill-rule="evenodd" clip-rule="evenodd" d="M12.2813 3.97381C12.2813 3.31745 11.8016 3.23541 11.162 3.23541C11.162 3.15336 11.162 3.15336 11.162 3.07132V2.98927C11.162 2.90723 11.3219 2.90723 11.7216 2.90723C12.1214 2.90723 12.6011 2.98927 13.0008 2.98927C13.4006 2.98927 13.8003 2.90723 14.2001 2.90723H16.3588C16.4387 2.90723 16.4387 2.98927 16.4387 3.15336V4.46608C16.4387 4.54812 16.4387 4.54812 16.3588 4.54812C16.2788 4.54812 16.1189 4.54812 16.1189 4.46608V4.1379C16.039 3.48154 15.6392 3.31745 14.9996 3.31745H13.9602C13.4006 3.31745 13.1607 3.48154 13.1607 4.21994V6.10697L13.2407 6.18902L14.4399 6.10697C15.0795 6.10697 15.2394 5.86084 15.3993 5.28652C15.3993 5.20448 15.4793 5.20448 15.5592 5.20448C15.6392 5.20448 15.7192 5.20448 15.7192 5.28652C15.7192 5.53266 15.6392 6.02493 15.6392 6.35311C15.6392 6.92742 15.7192 7.2556 15.7192 7.41969C15.7192 7.50173 15.6392 7.58378 15.5592 7.58378C15.4793 7.58378 15.3993 7.58378 15.3993 7.41969C15.3194 7.17355 15.3194 6.92742 15.3194 6.76333C15.2394 6.59924 15.1595 6.5172 14.8397 6.5172H13.4006C13.2407 6.5172 13.2407 6.59924 13.2407 6.68128V9.22467C13.2407 9.96307 13.8003 10.0451 14.5199 10.0451H15.0795C15.6392 10.0451 16.039 10.0451 16.2788 9.88103C16.5187 9.71694 16.8385 9.06058 16.9184 8.81445C17.0783 8.81445 17.2382 8.81445 17.2382 8.89649C17.2382 8.89649 17.2382 8.97854 17.1583 9.06058L16.8385 10.1272C16.7585 10.3733 16.6786 10.3733 16.5986 10.3733C15.4793 10.3733 14.36 10.2913 12.9209 10.2913C12.6011 10.2913 11.7216 10.3733 11.162 10.3733C11.162 10.3733 11.082 10.2913 11.082 10.2092C11.082 10.1272 11.082 10.0451 11.162 10.0451C12.0414 9.96307 12.2813 9.88103 12.2813 8.89649V3.97381Z" fill="white"/>
<path fill-rule="evenodd" clip-rule="evenodd" d="M29.6197 9.66825C28.6449 10.1386 27.5888 10.3737 26.2891 10.3737C23.5271 10.3737 20.5215 8.49249 20.5215 5.35713C20.5215 2.37854 23.3647 0.418945 26.2078 0.418945C27.1827 0.418945 28.7261 0.732481 29.5384 1.20278L29.7009 2.77046C29.7009 2.84885 29.7821 3.00562 29.7821 3.084C29.7821 3.16238 29.5384 3.16238 29.5384 3.16238C29.4572 3.16238 29.376 2.92723 29.1323 2.53531C28.7261 1.5947 27.5076 0.967633 26.2891 0.967633C23.6084 0.967633 22.0649 3.084 22.0649 5.5139C22.0649 7.70865 23.9333 9.82502 26.2891 9.82502C27.1014 9.82502 28.1575 9.51148 28.7261 9.11956C29.1323 8.80603 29.376 8.17896 29.5384 7.70865C29.5384 7.70865 29.6197 7.70865 29.7009 7.70865C29.7821 7.70865 30.0258 7.70865 29.9446 7.9438L29.6197 9.66825Z" fill="white"/>
<path d="M30.3711 6.79911C30.3711 4.6546 32.2403 2.90723 34.4346 2.90723C36.6289 2.90723 38.5793 4.41633 38.5793 6.48141C38.5793 8.54649 36.5476 10.3733 34.4346 10.3733C32.3216 10.3733 30.3711 9.02305 30.3711 6.79911ZM37.5228 6.71969C37.5228 4.97231 36.3038 3.22493 34.4346 3.22493C32.4841 3.22493 31.5901 4.73403 31.5901 6.48141C31.5901 8.22879 32.6466 10.0556 34.5971 10.0556C36.4663 9.97617 37.5228 8.46707 37.5228 6.71969Z" fill="white"/>
<path fill-rule="evenodd" clip-rule="evenodd" d="M40.4359 4.36798C40.4359 3.55645 40.3561 3.23184 39.558 3.23184C39.3984 3.23184 39.3984 3.23184 39.3984 3.06953C39.3984 2.90723 39.4782 2.90723 39.6378 2.90723C40.0369 2.90723 40.4359 2.98838 40.8349 2.98838C41.3935 2.98838 41.8723 2.90723 42.4309 2.90723C42.4309 2.98838 42.4309 3.06953 42.4309 3.06953C42.4309 3.15069 42.4309 3.23184 42.3511 3.23184C42.2713 3.23184 42.1915 3.23184 42.1117 3.23184L41.7127 3.31299C41.4733 3.39414 41.2339 3.4753 41.2339 3.88106V8.34447C41.2339 9.56177 41.3935 9.80523 42.6703 9.80523H43.2289C43.7078 9.80523 44.027 9.72407 44.1866 9.64292C44.426 9.48062 44.5856 9.07485 44.6654 8.9937L44.9048 8.58793C44.9048 8.58793 44.9048 8.50678 44.9846 8.50678C45.0644 8.50678 45.1442 8.50678 45.1442 8.58793L45.0644 9.88638C44.9846 10.1298 44.9048 10.3733 44.7452 10.3733C43.5482 10.3733 42.2713 10.2921 41.0743 10.2921C40.5955 10.2921 40.1167 10.3733 39.6378 10.3733H39.4782L39.3984 10.2921V10.1298C39.3984 9.96753 39.4782 9.96753 39.7176 9.96753C40.1965 9.96753 40.4359 9.88638 40.4359 9.39946V4.36798Z" fill="white"/>
<path fill-rule="evenodd" clip-rule="evenodd" d="M47.3863 4.36798C47.3863 3.55645 47.3087 3.23184 46.5322 3.23184C46.377 3.23184 46.377 3.23184 46.377 3.06953C46.377 2.90723 46.4546 2.90723 46.6099 2.90723C46.9981 2.90723 47.3863 2.98838 47.7746 2.98838C48.3181 2.98838 48.784 2.90723 49.3275 2.90723C49.4051 2.98838 49.4051 3.06953 49.4051 3.06953C49.4051 3.15069 49.4051 3.23184 49.3275 3.23184C49.2498 3.23184 49.1722 3.23184 49.0945 3.23184L48.7063 3.31299C48.4734 3.39414 48.2404 3.4753 48.2404 3.88106V8.34447C48.2404 9.56177 48.3957 9.80523 49.6381 9.80523H50.2592C50.7251 9.80523 51.0357 9.72407 51.191 9.64292C51.4239 9.48062 51.5792 9.07485 51.6568 8.9937L51.8898 8.58793C51.8898 8.58793 51.8898 8.50678 51.9674 8.50678C52.0451 8.50678 52.1227 8.50678 52.1227 8.58793L51.9674 9.88638C51.8898 10.1298 51.8121 10.3733 51.6568 10.3733C50.4922 10.3733 49.2498 10.2921 48.0852 10.2921C47.6193 10.2921 47.1534 10.3733 46.6875 10.3733H46.5322L46.377 10.2921V10.1298C46.377 9.96753 46.4546 9.96753 46.6875 9.96753C47.1534 9.96753 47.3863 9.88638 47.3863 9.39946V4.36798Z" fill="white"/>
<path fill-rule="evenodd" clip-rule="evenodd" d="M53.7325 3.99292C53.7325 3.33852 53.2528 3.25672 52.6132 3.25672C52.5332 3.25672 52.5332 3.17492 52.5332 3.17492V3.01132C52.5332 2.92952 52.6931 2.92952 53.0929 2.92952C53.4926 2.92952 53.9723 3.01132 54.3721 3.01132C54.7718 3.01132 55.1716 2.92952 55.5713 2.92952H57.73C57.9698 2.84772 57.9698 3.01132 57.9698 3.09312V4.40192C57.9698 4.48372 57.9698 4.48372 57.8899 4.48372C57.8099 4.48372 57.65 4.48372 57.65 4.40192V4.07472C57.5701 3.42032 57.1703 3.25672 56.5307 3.25672H55.4914C54.9317 3.25672 54.6919 3.42032 54.6919 4.15652V6.03791L54.7718 6.11971L55.9711 6.03791C56.6107 6.03791 56.7706 5.79251 56.9305 5.21991C56.9305 5.13811 57.0104 5.13811 57.0904 5.13811C57.1703 5.13811 57.2503 5.13811 57.2503 5.21991C57.1703 5.54711 57.1703 6.03791 57.1703 6.36511C57.1703 6.93771 57.1703 7.26491 57.1703 7.42851C57.1703 7.51031 57.0904 7.59211 57.0104 7.59211C56.9305 7.59211 56.8505 7.59211 56.8505 7.42851C56.7706 7.18311 56.7706 6.93771 56.7706 6.77411C56.6906 6.61051 56.6107 6.52871 56.2909 6.52871H54.8518C54.6919 6.52871 54.6919 6.61051 54.6919 6.69231V9.2281C54.6919 9.9643 55.2515 10.0461 55.9711 10.0461H56.5307C57.0904 10.0461 57.4901 10.0461 57.73 9.8825C57.9698 9.7189 58.2896 9.0645 58.3696 8.8191C58.5295 8.8191 58.6894 8.8191 58.6894 8.9009C58.6894 8.9009 58.6894 8.9827 58.6094 9.0645L58.2896 10.1279C58.2097 10.3733 58.1297 10.3733 58.0498 10.3733C56.9305 10.3733 55.8112 10.2915 54.3721 10.2915C54.0523 10.2915 53.1728 10.3733 52.6132 10.3733C52.6132 10.3733 52.5332 10.2915 52.5332 10.2097C52.5332 10.1279 52.5332 10.0461 52.6132 10.0461C53.4926 9.9643 53.7325 9.8825 53.7325 8.9009V3.99292Z" fill="white"/>
<path fill-rule="evenodd" clip-rule="evenodd" d="M66.0948 9.82317C65.3893 10.1375 64.6053 10.3733 63.6646 10.3733C61.7048 10.3733 59.5098 8.95867 59.5098 6.60097C59.5098 4.40044 61.548 2.90723 63.6646 2.90723C64.3701 2.90723 65.4676 3.143 66.0948 3.45736L66.2516 4.63621C66.2516 4.7148 66.2516 4.79339 66.2516 4.87198C66.2516 4.95057 66.0948 4.95057 66.0164 4.95057C65.938 4.95057 65.8596 4.79339 65.7812 4.47903C65.4677 3.77172 64.6053 3.30018 63.743 3.30018C61.7832 3.30018 60.6857 4.87198 60.6857 6.75815C60.6857 8.40854 62.0183 9.98035 63.743 9.98035C64.3701 9.98035 65.0757 9.74458 65.546 9.43022C65.8596 9.19445 66.0164 8.7229 66.0948 8.32995C66.0948 8.32995 66.1732 8.32995 66.2516 8.32995C66.33 8.32995 66.4868 8.32995 66.4868 8.48713L66.0948 9.82317Z" fill="white"/>
<path fill-rule="evenodd" clip-rule="evenodd" d="M70.6488 9.19189C70.6488 9.97997 71.1179 9.97997 71.7433 9.97997L71.8214 10.0588V10.2164C71.8214 10.374 71.7433 10.374 71.5869 10.374C71.3524 10.374 70.8833 10.2952 70.1798 10.2952C69.6326 10.2952 68.7727 10.374 68.5381 10.374C68.5381 10.2952 68.46 10.2164 68.46 10.2164C68.46 10.2164 68.46 10.1376 68.5381 10.1376L68.6163 10.0588H68.7727C69.7107 10.0588 69.7107 9.74355 69.7107 8.87666V3.91172V3.43887H68.3818C67.6 3.43887 67.5219 3.91172 67.2874 4.54219C67.2874 4.62099 67.2092 4.62099 67.131 4.62099C66.9747 4.62099 66.8965 4.54219 66.8965 4.54219C66.8965 4.38457 67.0528 3.43887 67.0528 2.65078C67.0528 2.57197 67.2092 2.57197 67.3655 2.57197C67.6782 3.04482 67.7564 3.04482 68.2254 3.04482H71.9778C72.6813 3.04482 72.9159 2.8084 73.1504 2.49316C73.2285 2.49316 73.4631 2.49316 73.4631 2.57197C73.4631 2.72959 73.2285 3.51767 73.2285 4.30576C73.2285 4.38457 73.2285 4.62099 73.1504 4.62099C73.0722 4.62099 72.8377 4.54219 72.8377 4.54219L72.7595 4.06933C72.6813 3.51768 72.4468 3.51767 72.0559 3.51767H70.6488V9.19189Z" fill="white"/>
<path fill-rule="evenodd" clip-rule="evenodd" d="M75.9797 8.42563C75.9797 9.96753 75.9797 9.96753 77.0741 10.0487L77.1583 10.1298V10.2921C77.1583 10.3733 76.9899 10.3733 76.9057 10.3733C76.7374 10.3733 76.0639 10.2921 75.5587 10.2921C75.0536 10.2921 74.4643 10.3733 73.9592 10.3733C73.875 10.3733 73.875 10.2921 73.875 10.211C73.875 10.0487 73.875 10.0487 74.2117 10.0487C74.9694 10.0487 74.9694 9.88638 74.9694 9.07485V4.04337C74.9694 3.4753 74.8011 3.31299 73.875 3.31299V3.23184V3.06953C73.875 2.98838 73.9592 2.90723 74.0434 2.90723C74.2959 2.90723 74.7169 2.98838 75.3904 2.98838C75.8955 2.98838 76.569 2.90723 76.9899 2.90723L77.0741 2.98838V3.15069L76.9899 3.23184H76.7374C76.3164 3.23184 75.9797 3.31299 75.9797 3.79991V8.42563Z" fill="white"/>
<path fill-rule="evenodd" clip-rule="evenodd" d="M78.8476 3.97381C78.8476 3.31745 78.3679 3.23541 77.7283 3.23541C77.6483 3.23541 77.6483 3.15336 77.6483 3.15336V2.98927C77.6483 2.90723 77.8082 2.90723 78.208 2.90723C78.6077 2.90723 79.0874 2.98927 79.4872 2.98927C79.8869 2.98927 80.2867 2.90723 80.6864 2.90723H82.8451C82.925 2.90723 82.925 2.98927 82.925 3.15336V4.46608C82.925 4.54812 82.925 4.54812 82.8451 4.54812C82.7651 4.54812 82.6052 4.54812 82.6052 4.46608V4.1379C82.5253 3.48154 82.1255 3.31745 81.4859 3.31745H80.4466C79.8869 3.31745 79.6471 3.48154 79.6471 4.21994V6.10697L79.727 6.18902L80.9263 6.10697C81.5659 6.10697 81.7258 5.86084 81.8857 5.28652C81.8857 5.20448 81.9656 5.20448 82.0456 5.20448C82.1255 5.20448 82.2055 5.20448 82.2055 5.28652C82.2055 5.53266 82.1255 6.02493 82.1255 6.35311C82.1255 6.92742 82.2055 7.2556 82.2055 7.41969C82.2055 7.50173 82.1255 7.58378 82.0456 7.58378C81.9656 7.58378 81.8857 7.58378 81.8857 7.41969C81.8057 7.17355 81.8057 6.92742 81.8057 6.76333C81.7258 6.59924 81.6458 6.5172 81.326 6.5172H79.8869C79.727 6.5172 79.727 6.59924 79.727 6.68128V9.22467C79.727 9.96307 80.2867 10.0451 81.0062 10.0451H81.5659C82.1255 10.0451 82.5253 10.0451 82.7651 9.88103C83.005 9.71694 83.3248 9.06058 83.4047 8.81445C83.5646 8.81445 83.7245 8.81445 83.7245 8.89649C83.7245 8.89649 83.7245 8.97854 83.6446 9.06058L83.3248 10.1272C83.2448 10.3733 83.1649 10.3733 83.0849 10.3733C81.9656 10.3733 80.8463 10.2913 79.4072 10.2913C79.0874 10.2913 78.208 10.3733 77.6483 10.3733C77.6483 10.3733 77.5684 10.2913 77.5684 10.2092C77.5684 10.1272 77.5684 10.0451 77.6483 10.0451C78.5278 9.96307 78.7676 9.88103 78.7676 8.89649V3.97381H78.8476Z" fill="white"/>
<path fill-rule="evenodd" clip-rule="evenodd" d="M85.6941 6.89878C84.9553 6.43215 84.627 6.04329 84.627 5.26558C84.627 4.02123 85.6941 3.32129 87.1716 3.32129C87.582 3.32129 88.1565 3.47683 88.4849 3.63238L88.567 4.95449C88.567 5.03226 88.4849 5.03226 88.3207 5.03226C88.1565 5.03226 88.1565 4.95449 88.1565 4.87672C88.0745 4.17678 87.582 3.78792 86.8432 3.78792C86.1045 3.78792 85.5299 4.25455 85.5299 4.87672C85.5299 5.57666 86.0224 5.88775 87.0895 6.43215C88.1565 6.97655 89.0594 7.44318 89.0594 8.68753C89.0594 10.0874 87.7461 10.7874 86.4328 10.7874C86.0224 10.7874 85.2837 10.6318 84.8733 10.4763C84.7912 10.3985 84.7912 10.3207 84.7091 10.0874L84.5449 9.15416C84.5449 9.07639 84.7912 9.07639 84.7912 9.07639C84.7912 9.07639 84.8733 9.07639 84.8733 9.15416C85.1195 9.93187 85.6941 10.3985 86.5149 10.3985C87.2536 10.3985 87.9924 9.77633 87.9924 9.07639C87.9924 8.45421 87.582 8.06536 87.0895 7.75427L85.6941 6.89878Z" fill="white"/>
<path fill-rule="evenodd" clip-rule="evenodd" d="M92.3936 4.03613C92.3143 3.79785 91.8386 3.71842 91.6008 3.71842L91.5215 3.63899V3.40072H91.6008C91.9972 3.40072 92.6315 3.48014 92.8693 3.48014C93.345 3.48014 93.8207 3.40072 94.2964 3.40072V3.71842L93.8207 3.79785C93.6622 3.79785 93.5036 3.87727 93.5036 4.03613C93.5036 4.11555 93.5829 4.2744 93.5829 4.35383L94.7721 7.45146L95.4064 8.96056C95.4857 9.11941 95.4857 9.11941 95.4857 9.11941C95.4857 9.11941 95.565 9.03998 95.565 8.96056L96.9921 5.06867C97.1507 4.59211 97.3092 4.2744 97.2299 4.11555C97.2299 3.9567 97.1507 3.87727 96.8335 3.79785L96.2785 3.71842H96.1992V3.32129C96.5957 3.32129 96.9921 3.40072 97.3885 3.40072C97.7056 3.40072 98.4192 3.32129 98.4192 3.32129L98.4985 3.40072V3.63899L98.4192 3.71842H98.1021C97.8642 3.71842 97.7849 3.79785 97.7056 4.19498C96.7542 6.57777 96.5164 7.2926 95.7235 9.27826L95.1686 10.6285C95.0893 10.7874 95.0893 10.7874 95.01 10.7874C94.9307 10.7874 94.9307 10.7874 94.8514 10.7079L92.3936 4.03613Z" fill="white"/>
<path d="M100.421 7.51395L99.9542 8.94362C99.8764 9.1819 99.7987 9.42018 99.7987 9.57903C99.7987 9.89674 100.265 9.97617 100.576 9.97617C100.654 9.97617 100.654 10.0556 100.654 10.135C100.654 10.2144 100.654 10.2939 100.576 10.2939C100.343 10.2939 99.6431 10.2144 99.3321 10.2144C99.021 10.2144 98.6322 10.2939 98.3212 10.2939C98.0879 10.2939 98.0879 10.2939 98.0879 10.135V10.0556C98.0879 9.97617 98.1657 9.97617 98.3989 9.97617C98.9433 9.89674 99.021 9.81731 99.1766 9.26133L101.198 3.38378C101.432 3.22493 101.587 2.98665 101.898 2.90723L104.387 9.42018C104.542 9.81731 104.775 10.0556 105.32 10.0556C105.398 10.0556 105.475 10.2144 105.475 10.2939C105.475 10.3733 105.398 10.3733 105.32 10.3733C105.164 10.3733 104.542 10.2939 104.153 10.2939C103.765 10.2939 103.376 10.2939 102.909 10.3733C102.754 10.3733 102.754 10.3733 102.754 10.2144C102.754 10.135 102.831 10.0556 102.987 10.0556C103.142 10.0556 103.609 10.0556 103.609 9.81731C103.609 9.73789 103.531 9.57903 103.453 9.1819L102.831 7.51395H100.421ZM102.598 7.11682L101.509 4.17805L100.576 7.11682H102.598Z" fill="white"/>
<path fill-rule="evenodd" clip-rule="evenodd" d="M107.297 4.50014C107.297 4.26437 107.297 4.26437 107.219 4.18578C107.14 4.0286 106.67 3.63565 106.514 3.63565H105.965C105.887 3.63565 105.887 3.55706 105.887 3.47847C105.887 3.39988 105.887 3.32129 105.965 3.32129C106.278 3.32129 106.514 3.32129 106.749 3.32129C107.219 3.32129 107.924 3.39988 108.159 3.39988L111.215 7.09362C111.685 7.64375 112.155 8.19388 112.86 8.9012H112.938V4.42155C112.938 3.71424 112.703 3.63565 112.39 3.63565H111.92C111.841 3.63565 111.841 3.55706 111.841 3.47847C111.841 3.39988 111.841 3.32129 111.92 3.32129C112.155 3.32129 112.703 3.39988 113.173 3.39988C113.644 3.39988 114.114 3.32129 114.427 3.32129C114.505 3.32129 114.505 3.39988 114.505 3.39988V3.55706C114.505 3.63565 114.505 3.63565 114.427 3.63565H114.192C113.487 3.63565 113.487 4.0286 113.487 4.89309V10.7874H113.252L107.767 4.50014V9.13697C107.767 10.0015 107.924 10.08 108.786 10.1586C108.864 10.1586 108.864 10.2372 108.864 10.3158C108.864 10.3944 108.864 10.473 108.786 10.473C108.629 10.473 107.924 10.3944 107.532 10.3944C107.062 10.3944 106.827 10.473 106.357 10.473C106.278 10.473 106.278 10.3944 106.278 10.2372C106.278 10.1586 106.278 10.08 106.435 10.08C106.827 10.08 107.375 10.0015 107.375 9.45133V4.50014H107.297Z" fill="white"/>
<path d="M118.516 4.28683C118.516 3.88106 118.435 3.4753 118.029 3.4753C117.948 3.55645 117.623 3.55645 117.379 3.55645C117.379 3.55645 117.379 3.39414 117.379 3.31299C117.379 3.23184 117.379 3.23184 117.541 3.15069C118.272 2.98838 119.897 2.90723 120.79 2.90723C121.359 2.90723 121.928 2.98838 122.415 3.06953C123.877 3.4753 125.177 4.69259 125.177 6.64026C125.177 9.23716 122.984 10.3733 121.034 10.3733C120.059 10.3733 119.491 10.2921 119.003 10.2921C118.516 10.2921 117.947 10.2921 117.46 10.3733C117.379 10.3733 117.379 10.2921 117.379 10.211C117.379 10.1298 117.46 10.0487 117.46 10.0487C117.785 9.96753 118.029 9.96753 118.272 9.88638C118.435 9.80523 118.516 9.64292 118.516 9.31831V4.28683ZM119.491 8.9937C119.491 10.1298 120.709 10.1298 121.115 10.1298C122.577 10.1298 124.121 8.91254 124.121 6.72142C124.121 4.8549 123.146 3.96221 122.415 3.4753C121.928 3.23184 121.278 3.23184 120.79 3.23184C119.897 3.23184 119.491 3.31299 119.491 3.96221V8.9937Z" fill="white"/>
<path fill-rule="evenodd" clip-rule="evenodd" d="M126.865 3.97381C126.865 3.31745 126.385 3.23541 125.746 3.23541C125.666 3.23541 125.666 3.15336 125.666 3.15336V2.98927C125.666 2.90723 125.826 2.90723 126.226 2.90723C126.625 2.90723 127.105 2.98927 127.505 2.98927C127.904 2.98927 128.304 2.90723 128.704 2.90723H130.863C130.943 2.90723 130.943 2.98927 130.943 3.15336V4.46608C130.943 4.54812 130.943 4.54812 130.863 4.54812C130.783 4.54812 130.623 4.54812 130.623 4.46608V4.1379C130.543 3.48154 130.143 3.31745 129.503 3.31745H128.464C127.905 3.31745 127.665 3.48154 127.665 4.21994V6.10697L127.745 6.18902L128.944 6.10697C129.583 6.10697 129.743 5.86084 129.903 5.28652C129.903 5.20448 129.983 5.20448 130.063 5.20448C130.143 5.20448 130.223 5.20448 130.223 5.28652C130.223 5.53266 130.143 6.02493 130.143 6.35311C130.143 6.92742 130.223 7.2556 130.223 7.41969C130.223 7.50173 130.143 7.58378 130.063 7.58378C129.983 7.58378 129.903 7.58378 129.903 7.41969C129.823 7.17355 129.823 6.92742 129.823 6.76333C129.743 6.59924 129.663 6.5172 129.344 6.5172H127.904C127.745 6.5172 127.745 6.59924 127.745 6.68128V9.22467C127.745 9.96307 128.304 10.0451 129.024 10.0451H129.583C130.143 10.0451 130.543 10.0451 130.783 9.88103C131.023 9.71694 131.342 9.06058 131.422 8.81445C131.582 8.81445 131.742 8.81445 131.742 8.89649C131.742 8.89649 131.742 8.97854 131.662 9.06058L131.342 10.1272C131.262 10.3733 131.182 10.3733 131.103 10.3733C129.983 10.3733 128.864 10.2913 127.425 10.2913C127.105 10.2913 126.226 10.3733 125.666 10.3733C125.666 10.3733 125.586 10.2913 125.586 10.2092C125.586 10.1272 125.586 10.0451 125.666 10.0451C126.545 9.96307 126.785 9.88103 126.785 8.89649V3.97381H126.865Z" fill="white"/>
</svg>
