<svg viewBox="0 0 1320 175" fill="none" xmlns="http://www.w3.org/2000/svg">
  <path class="logo__inner" fill-rule="evenodd" clip-rule="evenodd" d="M220.605 36.2607V155.751H292.94V148.895H242.433V36.2607H220.605Z" fill="#565656" />
  <path class="logo__text" d="M215.757 1.45031V173.545H295.267V148.892L292.94 148.895V155.751H220.605V36.2607H242.433L242.435 1.45031H215.757Z" fill="#00402B" />
  <path class="logo__text" d="M423.863 155.751V36.2607H445.662V24.6525H459.525C464.402 24.6525 468.329 25.2195 471.292 26.3479C474.251 27.4734 476.565 29.2086 478.225 31.5422C479.213 32.9355 479.972 34.5226 480.556 36.2607H496.197V87.9649C499.474 84.9417 502.042 81.5339 503.857 77.7072C507.259 70.5411 508.956 61.9618 508.956 51.9663C508.956 18.2899 493.265 1.44747 461.878 1.44747H418.982V173.545H445.662V155.751H423.863Z" fill="#00402B" />
  <path class="logo__text" d="M496.197 122.996V155.752H480.445L486.464 173.546H514.714L496.197 122.996Z" fill="#00402B" />
  <path class="logo__text" d="M641.822 173.546H668.506V155.749H641.822V173.546Z" fill="#00402B" />
  <path class="logo__text" d="M725.785 29.367C724.037 23.3236 720.901 18.0466 716.368 13.5332C711.832 9.02558 706.777 5.88275 701.2 4.11046C695.616 2.33817 689.165 1.44918 681.841 1.44918H641.823V19.2462H699.455V31.4015C699.86 31.9799 700.223 32.5896 700.544 33.2336C701.852 35.892 702.636 39.0377 702.897 42.6621C703.158 46.2864 703.289 50.1159 703.289 54.142C703.289 58.493 703.158 62.4422 702.897 65.9868C702.636 69.5313 701.809 72.5545 700.413 75.0505C700.133 75.5492 699.801 76.0136 699.455 76.4723V104.225C701.893 103.53 704.147 102.678 706.164 101.638C712.264 98.4977 717.151 94.1098 720.81 88.4652C723.953 83.7951 725.999 78.7604 726.963 73.358C727.917 67.9642 728.402 61.4791 728.402 53.8999C728.402 43.5881 727.523 35.4105 725.785 29.367Z" fill="#00402B" />
  <path class="logo__text" d="M749.063 173.546H775.744V155.752H749.063V173.546Z" fill="#00402B" />
  <path class="logo__text" d="M749.063 19.2456H775.744V1.44861H749.063V19.2456Z" fill="#00402B" />
  <path class="logo__text" d="M1033.63 141.962C1032.07 139.115 1031.27 136.03 1031.27 132.702V124.966H1004.59V134.149C1004.59 139.953 1005.77 145.347 1008.12 150.342C1010.48 155.34 1013.66 159.651 1017.67 163.272C1021.68 166.902 1026.47 169.766 1032.06 171.854C1037.64 173.946 1043.65 175 1050.1 175C1058.65 175 1065.88 173.704 1071.81 171.133C1077.74 168.555 1082.49 165.05 1086.07 160.617C1087.28 159.109 1088.34 157.462 1089.32 155.75H1033.63V141.962Z" fill="#00402B" />
  <path class="logo__inner" fill-rule="evenodd" clip-rule="evenodd" d="M1096.13 124.48C1096.13 118.198 1095.79 112.599 1095.09 107.683C1094.39 102.768 1093.03 98.4202 1091.04 94.6306C1089.03 90.8438 1086.2 87.5386 1082.54 84.7206C1078.87 81.9026 1074.07 79.4408 1068.15 77.3465L1047.75 69.8527C1044.26 68.5677 1041.52 67.2769 1039.51 65.9862C1037.51 64.6983 1035.97 63.2081 1034.93 61.5127C1034.39 60.6351 1033.97 59.6606 1033.63 58.6092V90.8324C1034.07 91.0063 1034.48 91.1943 1034.93 91.3653L1054.02 98.6168C1057.34 99.9104 1060 101.119 1062 102.244C1064 103.372 1065.58 104.826 1066.71 106.595C1067.84 108.37 1068.58 110.704 1068.93 113.604C1069.28 116.505 1069.46 120.212 1069.46 124.723C1069.46 128.586 1069.28 132.137 1068.93 135.356C1068.58 138.582 1067.76 141.283 1066.45 143.454C1065.14 145.631 1063.22 147.323 1060.7 148.532C1058.16 149.737 1054.63 150.341 1050.1 150.341C1043.3 150.341 1038.46 148.532 1035.58 144.904C1034.83 143.956 1034.19 142.973 1033.63 141.962V155.75H1089.32C1091.23 152.428 1092.74 148.76 1093.78 144.662C1095.35 138.462 1096.13 131.732 1096.13 124.48ZM1067.88 36.2619H1095.99C1096.06 37.1423 1096.13 38.0256 1096.13 38.9146V50.9987H1069.46V45.4424C1069.46 42.1002 1068.89 39.0628 1067.88 36.2619Z" fill="#565656" />
  <path class="logo__text" d="M1092.99 24.7756C1090.91 20.1853 1087.9 16.0338 1083.98 12.3297C1080.05 8.62268 1075.34 5.63942 1069.85 3.38274C1064.36 1.12891 1058.3 0.000569896 1051.67 0.000569896C1044 0.000569896 1037.28 1.24858 1031.53 3.74745C1025.78 6.24633 1021.03 9.5886 1017.28 13.7771C1013.53 17.9685 1010.69 22.9606 1008.77 28.7618C1006.85 34.5631 1005.9 40.692 1005.9 47.1344C1005.9 57.9305 1007.86 66.9145 1011.78 74.0835C1015.56 80.976 1022.86 86.547 1033.63 90.8324V58.6092C1033.33 57.6348 1033.1 56.597 1032.97 55.4716C1032.71 53.1379 1032.58 50.2772 1032.58 46.8922C1032.58 43.9887 1032.84 41.2106 1033.37 38.5522C1033.43 38.2245 1033.56 37.9453 1033.63 37.6261C1033.75 37.156 1033.89 36.7086 1034.03 36.2613C1034.55 34.5517 1035.2 32.9447 1036.1 31.5428C1037.41 29.5311 1039.25 27.8785 1041.6 26.5906C1043.96 25.297 1046.96 24.6531 1050.62 24.6531C1057.43 24.6531 1062.26 26.7103 1065.14 30.8162C1066.31 32.4916 1067.18 34.33 1067.88 36.2619H1095.99C1095.67 32.3554 1094.7 28.5196 1092.99 24.7756Z" fill="#00402B" />
  <path class="logo__text" d="M1135.26 155.751V36.2607L1141.91 36.2604C1142.24 35.058 1142.67 33.9525 1143.22 32.9438C1144.07 31.3795 1145.1 29.9751 1146.49 28.8809C1150.05 26.0658 1154.29 24.6525 1159.17 24.6525C1164.05 24.6525 1168.28 26.0658 1171.86 28.8809C1172.39 29.3026 1172.8 29.8326 1173.26 30.3227C1174.74 31.9269 1175.8 33.9072 1176.43 36.2607H1203.53C1203.18 33.2889 1202.59 30.468 1201.69 27.8381C1201.2 26.4049 1200.63 25.0201 1199.97 23.6866C1198.85 21.4071 1197.55 19.3356 1196.12 17.3952C1194.22 14.8109 1192.08 12.4944 1189.64 10.5141C1185.36 7.04927 1180.57 4.43358 1175.25 2.65844C1169.94 0.886145 1164.57 0 1159.17 0C1153.76 0 1148.4 0.886145 1143.09 2.65844C1137.77 4.43358 1132.97 7.04927 1128.7 10.5141C1124.43 13.9789 1120.98 18.3694 1118.37 23.6863C1118.34 23.7547 1118.31 23.8288 1118.28 23.8971C1115.93 28.7496 1114.71 34.2947 1114.52 40.4806C1114.5 41.0106 1114.45 41.5178 1114.45 42.0591V132.942C1114.45 133.583 1114.51 134.178 1114.54 134.805C1114.73 140.666 1115.86 145.866 1117.94 150.394C1118.09 150.73 1118.2 151.098 1118.37 151.428C1118.61 151.901 1118.88 152.331 1119.14 152.79C1121.44 157.027 1124.32 160.649 1127.78 163.649C1128.09 163.92 1128.38 164.222 1128.7 164.481C1130.95 166.308 1133.35 167.883 1135.89 169.237C1138.18 170.456 1140.57 171.499 1143.09 172.337C1147.05 173.659 1151.04 174.488 1155.06 174.824C1155.08 174.824 1155.1 174.83 1155.12 174.833C1155.45 174.858 1155.78 174.853 1156.1 174.873C1157.12 174.935 1158.14 174.998 1159.17 174.998C1160.06 174.998 1160.94 174.935 1161.83 174.89C1166.33 174.645 1170.81 173.818 1175.25 172.337C1180.57 170.567 1185.36 167.949 1189.64 164.481C1192.29 162.327 1194.6 159.788 1196.61 156.945C1196.9 156.546 1197.19 156.161 1197.46 155.751H1135.26Z" fill="#00402B" />
  <path class="logo__inner" fill-rule="evenodd" clip-rule="evenodd" d="M1203.89 42.0594C1203.89 40.0506 1203.75 38.1327 1203.53 36.2607H1176.43C1176.9 38.0102 1177.22 39.8939 1177.22 42.0594V132.942C1177.22 138.786 1175.47 143.103 1172.04 145.926C1171.97 145.983 1171.93 146.06 1171.86 146.115C1168.28 148.933 1164.05 150.34 1159.17 150.34C1154.29 150.34 1150.05 148.933 1146.49 146.115C1142.91 143.297 1141.12 138.903 1141.12 132.942V42.0594C1141.12 39.8939 1141.44 38.0099 1141.91 36.2604L1135.26 36.2607V155.751H1197.46C1198.36 154.377 1199.21 152.95 1199.97 151.429C1200.62 150.138 1201.18 148.79 1201.66 147.385C1203.15 143.097 1203.89 138.285 1203.89 132.942V42.0594Z" fill="#565656" />
  <path class="logo__inner" fill-rule="evenodd" clip-rule="evenodd" d="M1292.82 105.143H1292.3L1258.94 19.2467H1236.89V155.75H1253.07V70.0961H1253.59L1287.37 155.75H1309.22V19.2467H1292.82V105.143Z" fill="#565656" />
  <path class="logo__text" d="M1236.89 155.75V19.2467H1258.94L1252.02 1.45031H1226.39V173.545H1253.07L1253.07 155.75H1236.89Z" fill="#00402B" />
  <path class="logo__text" d="M1292.82 1.44946V19.2467H1309.22V155.75H1287.37L1294.39 173.544H1319.5V1.44946H1292.82Z" fill="#00402B" />
  <path class="logo__inner" fill-rule="evenodd" clip-rule="evenodd" d="M52.8092 50.9986H53.3346L66.4106 113.362H39.7301L52.8092 50.9986ZM30.9506 155.752L35.0201 136.567L35.0233 136.564H71.3817L75.4512 155.752H89.6806V106.407L68.6179 19.2456H37.7839L17.3461 103.825V155.752H30.9506Z" fill="#565656" />
  <path class="logo__text" d="M89.6806 106.407V155.752H75.4512L79.2295 173.547H105.907L89.6806 106.407Z" fill="#00402B" />
  <path class="logo__text" d="M37.7839 19.2456H68.6179L64.3199 1.4469H42.0851L37.7839 19.2456Z" fill="#00402B" />
  <path class="logo__text" d="M17.3461 103.825V155.752H30.9506L27.1774 173.546H0.5L17.3461 103.825Z" fill="#00402B" />
  <path class="logo__inner" fill-rule="evenodd" clip-rule="evenodd" d="M191.308 148.895H145.663V36.2601H118.983V155.75H191.308V148.895Z" fill="#565656" />
  <path class="logo__text" fill-rule="evenodd" clip-rule="evenodd" d="M333.676 36.2607H372.73L364.317 1.45031H342.086L333.676 36.2607ZM394.567 126.622V155.751H375.453L379.228 173.545H405.908L394.567 126.622ZM327.179 173.545H300.498L322.232 83.6139V155.751H330.953L327.179 173.545Z" fill="#00402B" />
  <path class="logo__text" d="M828.311 24.6548H881.144V1.44974H801.634V173.544H881.144V155.394H828.364L828.311 24.6548Z" fill="#00402B" />
  <path class="logo__text" d="M604.684 13.1711C596.659 5.35819 585.07 1.44889 569.898 1.44889H530.403V19.2459H597.822V155.752H530.403V173.546H567.545C583.409 173.546 595.571 169.722 604.031 162.066C612.487 154.416 616.718 142.531 616.718 126.412V45.9243C616.718 31.9055 612.704 20.9897 604.684 13.1711Z" fill="#00402B" />
  <path class="logo__inner" fill-rule="evenodd" clip-rule="evenodd" d="M590.035 128.827C590.035 136.244 588.468 141.68 585.331 145.145C582.191 148.613 576.869 150.339 569.376 150.339H557.081V24.6548H569.376C577.22 24.6548 582.62 26.5069 585.589 30.211C588.552 33.9237 590.035 39.1551 590.035 45.9223V128.827ZM530.403 155.752H597.822V19.2459H530.403V155.752Z" fill="#565656" />
  <path class="logo__text" d="M118.983 36.2601H145.663L145.662 1.44861H118.982L118.983 36.2601Z" fill="#00402B" />
  <path class="logo__text" d="M191.308 148.895V155.75H118.983V173.544H198.496V148.895H191.308Z" fill="#00402B" />
  <path class="logo__inner" fill-rule="evenodd" clip-rule="evenodd" d="M445.662 155.751H423.863V36.2607H445.662L445.661 78.3141H460.829C465.536 78.3141 469.289 77.7101 472.077 76.502C474.866 75.291 477.002 73.5643 478.482 71.3076C479.965 69.0509 480.969 66.27 481.497 62.9676C482.017 59.6652 482.281 55.8357 482.281 51.4847C482.281 47.1338 482.017 43.3071 481.497 40.0019C481.283 38.6684 480.954 37.4375 480.556 36.2607H496.197V87.9649C493.331 90.6119 489.926 92.9626 485.94 94.9942L496.197 122.996V155.752H480.445L461.616 100.069H445.661L445.662 155.751Z" fill="#565656" />
  <path class="logo__inner" fill-rule="evenodd" clip-rule="evenodd" d="M699.455 76.4723C698.088 78.3045 696.238 79.8109 693.873 80.9734C690.907 82.4238 686.722 83.1503 681.322 83.1503H668.504V24.6534H682.367C687.599 24.6534 691.606 25.4227 694.398 26.9528C696.509 28.1096 698.193 29.595 699.455 31.4015V19.2462H641.823L641.822 155.749H668.506L668.504 106.353H682.105C688.755 106.353 694.522 105.632 699.455 104.225V76.4723Z" fill="#565656" />
  <path class="logo__inner" fill-rule="evenodd" clip-rule="evenodd" d="M749.063 155.752H775.744V19.2456H749.063V155.752Z" fill="#565656" />
  <path class="logo__inner" fill-rule="evenodd" clip-rule="evenodd" d="M828.339 98.3715H874.347V75.1665H828.311L828.339 98.3715Z" fill="#565656" />
  <path class="logo__inner" fill-rule="evenodd" clip-rule="evenodd" d="M828.312 155.396L881.144 155.394L881.144 148.896H828.312V155.396Z" fill="#565656" />
  <path class="logo__text" d="M932.006 78.315H925.08V24.6534H938.945C943.823 24.6534 947.747 25.2204 950.713 26.3487C953.675 27.4742 955.985 29.2095 957.645 31.5431C958.631 32.9364 959.396 34.5235 959.977 36.2616H986.972C982.535 13.0793 967.333 1.44832 941.296 1.44832H898.403V173.546H925.08V100.07H932.006V78.315Z" fill="#00402B" />
  <path class="logo__text" d="M959.865 155.751L965.887 173.545H994.131L987.615 155.751H959.865Z" fill="#00402B" />
  <path class="logo__inner" fill-rule="evenodd" clip-rule="evenodd" d="M932.006 78.315V100.07L941.035 100.07L959.865 155.751H987.615L965.359 94.995C973.902 90.6413 979.874 84.8799 983.278 77.7109C986.676 70.5392 988.374 61.9626 988.374 51.97C988.374 44.6272 986.717 34.9281 986.972 36.2616H959.977C960.375 37.4355 960.701 38.6693 960.913 40.0028C961.438 43.308 961.699 47.1347 961.699 51.4828C961.699 55.8365 961.438 59.6661 960.913 62.9685C960.391 66.268 959.383 69.0518 957.906 71.3085C956.424 73.5651 954.285 75.289 951.502 76.5028C948.707 77.7109 944.961 78.315 940.251 78.315L932.006 78.315Z" fill="#565656" />
  <path class="logo__inner" fill-rule="evenodd" clip-rule="evenodd" d="M366.413 113.361L339.73 113.361L352.812 50.9972H353.334L366.413 113.361ZM372.73 36.2607H333.676L322.232 83.6139V155.751H330.953L335.022 136.565H371.383L375.453 155.751H394.567V126.622L372.73 36.2607Z" fill="#565656" />
</svg>
