<svg xmlns="http://www.w3.org/2000/svg" id="Laag_1" data-name="Laag 1" viewBox="0 0 200 100"><defs><style> .cls-1 { fill: #004070; } .cls-2 { fill: #5f9953; } </style></defs><g><path class="cls-1" d="M94.13,16.94c-.79-.68-2.03-1.16-3.23-1.16-1.06,0-1.39.37-1.39.77,0,.35.25.6.7.81.7.33,2.43.79,3.57,1.41,1.12.62,1.64,1.37,1.64,2.7,0,2.82-2.36,3.59-4.54,3.59s-3.81-.68-4.62-1.39l1.04-2.34c.83.62,2.2,1.16,3.61,1.16,1.08,0,1.74-.33,1.74-1,0-.46-.31-.68-1.04-.97-.85-.33-2.47-.87-3.34-1.33-.81-.44-1.55-1.16-1.55-2.55,0-2.26,1.93-3.34,4.35-3.34,1.78,0,3.25.6,4.04,1.26l-.97,2.38Z"></path><path class="cls-1" d="M98.79,13.56v-2.92l2.82-.95v3.88h2.51v2.28h-2.51v5.37c0,.62.31.95,1.08.95.64,0,1.08-.21,1.49-.58l-.46,2.47c-.44.5-1.37.83-2.24.83-1.47,0-2.7-.97-2.7-3.01v-6.03h-1.31v-2.28h1.31Z"></path><path class="cls-1" d="M110.21,10.64c0,.91-.64,1.55-1.53,1.55s-1.51-.64-1.51-1.55.62-1.55,1.51-1.55,1.53.64,1.53,1.55ZM110.09,13.56v11.22h-2.8v-11.22h2.8Z"></path><path class="cls-1" d="M121.2,17.29c-.39-.89-1.12-1.41-2.05-1.41-1.31,0-2.38,1.04-2.38,3.32s1.08,3.28,2.36,3.28c.85,0,1.55-.44,2.03-1.24l1.99,1.45c-.48.85-1.8,2.36-4.19,2.36-2.72,0-4.96-2.03-4.96-5.87s2.24-5.89,5.18-5.89c2.05,0,3.44,1,4.04,2.32l-2.03,1.68Z"></path><path class="cls-1" d="M129.26,9.46v4.93c.75-.73,1.74-1.1,2.94-1.1,2.22,0,3.73,1.26,3.73,4.37v7.11h-2.82v-6.78c0-1.51-.73-2.07-1.87-2.07-.77,0-1.51.27-1.99,1.37v7.48h-2.8v-14.37l2.8-.95Z"></path><path class="cls-1" d="M140.31,13.56v-2.92l2.82-.95v3.88h2.51v2.28h-2.51v5.37c0,.62.31.95,1.08.95.64,0,1.08-.21,1.49-.58l-.46,2.47c-.44.5-1.37.83-2.24.83-1.47,0-2.7-.97-2.7-3.01v-6.03h-1.31v-2.28h1.31Z"></path><path class="cls-1" d="M151.73,10.64c0,.91-.64,1.55-1.53,1.55s-1.51-.64-1.51-1.55.62-1.55,1.51-1.55,1.53.64,1.53,1.55ZM151.61,13.56v11.22h-2.8v-11.22h2.8Z"></path><path class="cls-1" d="M158.55,13.56v1.02c.79-.85,1.82-1.29,3.13-1.29,2.22,0,3.73,1.26,3.73,4.37v7.11h-2.82v-6.78c0-1.51-.73-2.07-1.87-2.07-.77,0-1.51.27-1.99,1.37v7.48h-2.8v-11.22h2.61Z"></path><path class="cls-1" d="M179.01,13.56v8.98c0,4.06-1.89,5.72-6.26,6.55l-.31-2.49c2.8-.62,3.94-1.47,3.94-3.32v-.31c-.71.7-1.7,1.2-2.96,1.2-3.01,0-4.17-2.8-4.17-5.45s1.16-5.43,4.17-5.43c1.26,0,2.26.5,2.96,1.22v-.95h2.63ZM176.38,20.36v-3.19c-.48-.77-1.18-1.37-2.26-1.37-1.66,0-2.22,1.37-2.22,2.96s.56,2.96,2.2,2.96c1.1,0,1.8-.58,2.28-1.37Z"></path></g><g><path class="cls-1" d="M29.07,32.66v3.69c2.7-2.79,6.47-4.75,11.23-4.75,11.72,0,16.31,12.05,16.31,23.44s-4.59,23.44-16.39,23.44c-4.26,0-7.7-1.56-10.33-3.93v15.65l-12.62,4.26v-61.8h11.8ZM29.89,47.17v15.82c1.64,2.38,3.93,4.02,7.13,4.02,5.66,0,7.62-5.33,7.62-11.97s-1.97-11.97-7.62-11.97c-3.2,0-5.49,1.72-7.13,4.1Z"></path><path class="cls-2" d="M81.2,32.66v44.75h-12.62v-44.75h12.62Z"></path><path class="cls-1" d="M121.68,47.83c-1.56-3.52-4.43-5.57-8.11-5.57-5.16,0-9.42,4.1-9.42,13.11s4.26,12.95,9.34,12.95c3.36,0,6.15-1.72,8.03-4.92l7.87,5.74c-1.89,3.36-7.13,9.34-16.56,9.34-10.74,0-19.59-8.03-19.59-23.19s8.85-23.28,20.49-23.28c8.11,0,13.6,3.93,15.98,9.18l-8.03,6.64Z"></path><path class="cls-1" d="M145.12,36.76c3.36-2.46,8.69-4.75,16.15-4.75,10.33,0,17.62,4.26,17.62,17.7v27.7h-10.16v-2.38c-3.36,1.89-7.21,2.95-11.39,2.95-8.69,0-15.57-4.51-15.57-14.18s6.97-14.83,16.72-14.83c3.2,0,6.47.57,9.51,1.64v-.16c0-6.23-2.79-8.03-7.87-8.03-4.34,0-7.79,1.23-10.57,3.11l-4.43-8.77ZM167.98,67.41v-9.67c-2.21-.57-4.59-.9-6.8-.9-4.92,0-9.02,1.72-9.02,6.31,0,4.26,3.69,5.82,7.79,5.82,2.62,0,5.49-.66,8.03-1.56Z"></path></g><rect class="cls-2" x="68.65" y="12.28" width="12.62" height="12.74"></rect></svg>